<svg width="56" height="56" viewBox="0 0 56 56" fill="none" xmlns="http://www.w3.org/2000/svg">
<path d="M27.9998 32.9C25.3748 32.9 23.0998 30.8 23.0998 28C23.0998 25.375 25.1998 23.1 27.9998 23.1C30.6248 23.1 32.8998 25.2 32.8998 28C32.8998 30.625 30.6248 32.9 27.9998 32.9Z" fill="white"/>
<path fill-rule="evenodd" clip-rule="evenodd" d="M33.9498 16.1H22.0498C20.6498 16.275 19.9498 16.45 19.4248 16.625C18.7248 16.8 18.1998 17.15 17.6748 17.675C17.2594 18.0904 17.0631 18.5058 16.8258 19.008C16.7633 19.1403 16.6978 19.279 16.6248 19.425C16.5977 19.5062 16.5665 19.5916 16.5329 19.6832C16.3499 20.1833 16.0998 20.8666 16.0998 22.05V33.95C16.2748 35.35 16.4498 36.05 16.6248 36.575C16.7998 37.275 17.1498 37.8 17.6748 38.325C18.0902 38.7404 18.5056 38.9367 19.0078 39.1739C19.1402 39.2365 19.2787 39.3019 19.4248 39.375C19.506 39.4021 19.5914 39.4333 19.6829 39.4668C20.1831 39.6499 20.8664 39.9 22.0498 39.9H33.9498C35.3498 39.725 36.0498 39.55 36.5748 39.375C37.2748 39.2 37.7998 38.85 38.3248 38.325C38.7402 37.9096 38.9365 37.4941 39.1737 36.992C39.2363 36.8596 39.3018 36.7211 39.3748 36.575C39.4019 36.4938 39.4331 36.4084 39.4666 36.3168C39.6497 35.8167 39.8998 35.1334 39.8998 33.95V22.05C39.7248 20.65 39.5498 19.95 39.3748 19.425C39.1998 18.725 38.8498 18.2 38.3248 17.675C37.9094 17.2596 37.4939 17.0633 36.9918 16.826C36.8596 16.7636 36.7206 16.6979 36.5748 16.625C36.4936 16.5979 36.4082 16.5667 36.3166 16.5332C35.8165 16.3501 35.1332 16.1 33.9498 16.1ZM27.9998 20.475C23.7998 20.475 20.4748 23.8 20.4748 28C20.4748 32.2 23.7998 35.525 27.9998 35.525C32.1998 35.525 35.5248 32.2 35.5248 28C35.5248 23.8 32.1998 20.475 27.9998 20.475ZM37.4498 20.3C37.4498 21.2665 36.6663 22.05 35.6998 22.05C34.7333 22.05 33.9498 21.2665 33.9498 20.3C33.9498 19.3335 34.7333 18.55 35.6998 18.55C36.6663 18.55 37.4498 19.3335 37.4498 20.3Z" fill="white"/>
<path fill-rule="evenodd" clip-rule="evenodd" d="M-0.000213623 28C-0.000213623 12.536 12.5358 0 27.9998 0C43.4638 0 55.9998 12.536 55.9998 28C55.9998 43.464 43.4638 56 27.9998 56C12.5358 56 -0.000213623 43.464 -0.000213623 28ZM22.0498 13.475H33.9498C35.5248 13.65 36.5748 13.825 37.4498 14.175C38.4998 14.7 39.1998 15.05 40.0748 15.925C40.9498 16.8 41.4748 17.675 41.8248 18.55C42.1748 19.425 42.5248 20.475 42.5248 22.05V33.95C42.3498 35.525 42.1748 36.575 41.8248 37.45C41.2998 38.5 40.9498 39.2 40.0748 40.075C39.1998 40.95 38.3248 41.475 37.4498 41.825C36.5748 42.175 35.5248 42.525 33.9498 42.525H22.0498C20.4748 42.35 19.4248 42.175 18.5498 41.825C17.4998 41.3 16.7998 40.95 15.9248 40.075C15.0498 39.2 14.5248 38.325 14.1748 37.45C13.8248 36.575 13.4748 35.525 13.4748 33.95V22.05C13.6498 20.475 13.8248 19.425 14.1748 18.55C14.6998 17.5 15.0498 16.8 15.9248 15.925C16.7998 15.05 17.6748 14.525 18.5498 14.175C19.4248 13.825 20.4748 13.475 22.0498 13.475Z" fill="white"/>
</svg>
