<svg width="32" height="33" viewBox="0 0 32 33" fill="none" xmlns="http://www.w3.org/2000/svg">
<path d="M16 19.3742C14.5 19.3742 13.2 18.1742 13.2 16.5742C13.2 15.0742 14.4 13.7742 16 13.7742C17.5 13.7742 18.8 14.9742 18.8 16.5742C18.8 18.0742 17.5 19.3742 16 19.3742Z" fill="white"/>
<path fill-rule="evenodd" clip-rule="evenodd" d="M19.4 9.77422H12.6C11.8 9.87422 11.4 9.97422 11.1 10.0742C10.7 10.1742 10.4 10.3742 10.1 10.6742C9.86261 10.9116 9.75045 11.149 9.61489 11.4359C9.57916 11.5115 9.5417 11.5908 9.5 11.6742C9.48453 11.7206 9.46667 11.7694 9.44752 11.8217C9.34291 12.1075 9.2 12.498 9.2 13.1742V19.9742C9.3 20.7742 9.4 21.1742 9.5 21.4742C9.6 21.8742 9.8 22.1742 10.1 22.4742C10.3374 22.7116 10.5748 22.8238 10.8617 22.9593C10.9374 22.9951 11.0165 23.0325 11.1 23.0742C11.1464 23.0897 11.1952 23.1075 11.2475 23.1267C11.5333 23.2313 11.9238 23.3742 12.6 23.3742H19.4C20.2 23.2742 20.6 23.1742 20.9 23.0742C21.3 22.9742 21.6 22.7742 21.9 22.4742C22.1374 22.2368 22.2495 21.9994 22.3851 21.7125C22.4209 21.6368 22.4583 21.5577 22.5 21.4742C22.5155 21.4278 22.5333 21.379 22.5525 21.3267C22.6571 21.0409 22.8 20.6505 22.8 19.9742V13.1742C22.7 12.3742 22.6 11.9742 22.5 11.6742C22.4 11.2742 22.2 10.9742 21.9 10.6742C21.6626 10.4368 21.4252 10.3247 21.1383 10.1891C21.0627 10.1534 20.9833 10.1159 20.9 10.0742C20.8536 10.0587 20.8048 10.0409 20.7525 10.0217C20.4667 9.91712 20.0762 9.77422 19.4 9.77422ZM16 12.2742C13.6 12.2742 11.7 14.1742 11.7 16.5742C11.7 18.9742 13.6 20.8742 16 20.8742C18.4 20.8742 20.3 18.9742 20.3 16.5742C20.3 14.1742 18.4 12.2742 16 12.2742ZM21.4 12.1742C21.4 12.7265 20.9523 13.1742 20.4 13.1742C19.8477 13.1742 19.4 12.7265 19.4 12.1742C19.4 11.6219 19.8477 11.1742 20.4 11.1742C20.9523 11.1742 21.4 11.6219 21.4 12.1742Z" fill="white"/>
<path fill-rule="evenodd" clip-rule="evenodd" d="M0 16.5742C0 7.73766 7.16344 0.574219 16 0.574219C24.8366 0.574219 32 7.73766 32 16.5742C32 25.4108 24.8366 32.5742 16 32.5742C7.16344 32.5742 0 25.4108 0 16.5742ZM12.6 8.27422H19.4C20.3 8.37422 20.9 8.47422 21.4 8.67422C22 8.97422 22.4 9.17422 22.9 9.67422C23.4 10.1742 23.7 10.6742 23.9 11.1742C24.1 11.6742 24.3 12.2742 24.3 13.1742V19.9742C24.2 20.8742 24.1 21.4742 23.9 21.9742C23.6 22.5742 23.4 22.9742 22.9 23.4742C22.4 23.9742 21.9 24.2742 21.4 24.4742C20.9 24.6742 20.3 24.8742 19.4 24.8742H12.6C11.7 24.7742 11.1 24.6742 10.6 24.4742C10 24.1742 9.6 23.9742 9.1 23.4742C8.6 22.9742 8.3 22.4742 8.1 21.9742C7.9 21.4742 7.7 20.8742 7.7 19.9742V13.1742C7.8 12.2742 7.9 11.6742 8.1 11.1742C8.4 10.5742 8.6 10.1742 9.1 9.67422C9.6 9.17422 10.1 8.87422 10.6 8.67422C11.1 8.47422 11.7 8.27422 12.6 8.27422Z" fill="white"/>
</svg>
