<svg width="174" height="128" viewBox="0 0 174 128" fill="none" xmlns="http://www.w3.org/2000/svg">
<path d="M97.6484 57.1504C97.6484 61.8478 97.651 66.5446 97.6573 71.242C97.6573 71.6277 97.5525 71.8443 97.2057 72.0398C95.1258 73.2171 93.0648 74.4238 90.9923 75.6163C90.4116 75.9499 90.4047 75.942 90.4047 75.2901C90.4047 68.0491 90.4047 60.8086 90.4047 53.5681C90.4047 51.4978 90.3878 49.4301 90.4174 47.3618C90.4247 46.8718 90.2687 46.6112 89.8456 46.3684C84.0521 43.0449 78.2655 39.7116 72.4858 36.3684C70.2098 35.0555 67.9333 33.7434 65.6568 32.4322C65.0508 32.0825 65.0513 32.0798 65.631 31.7453C67.3921 30.7286 69.1532 29.712 70.9154 28.6957C70.9591 28.6704 71.005 28.6474 71.0466 28.6198C72.4894 27.6789 72.0468 27.7348 73.5666 28.6086C79.2531 31.8773 84.9348 35.1537 90.6123 38.4377C92.8288 39.717 95.0383 41.0082 97.2611 42.2777C97.5514 42.4439 97.6484 42.6244 97.6479 42.9569C97.6357 47.6891 97.6331 52.4203 97.6394 57.1504H97.6484Z" fill="white"/>
<path fill-rule="evenodd" clip-rule="evenodd" d="M65.5778 40.9554C65.9946 41.2584 66.4842 41.5864 67.0649 41.6034C67.0349 41.5803 67.0053 41.5562 66.9764 41.532C66.9147 41.4809 66.853 41.4298 66.7845 41.3895C66.217 41.0597 65.6484 40.7311 65.0803 40.4024L65.0798 40.4023C64.0201 39.7897 62.9604 39.177 61.9059 38.5568C61.5339 38.3382 61.4401 38.3721 61.4401 38.8279C61.4501 46.8612 61.449 54.8946 61.4369 62.9282C61.4364 63.3018 61.5528 63.502 61.8732 63.6838C64.1271 64.9638 66.3703 66.2602 68.6147 67.5597C73.2789 70.2556 77.943 72.9505 82.6083 75.6454C83.1811 75.9764 83.1848 75.9706 83.1848 75.2908C83.1853 74.6668 83.1832 74.0429 83.1816 73.419C83.1774 71.8228 83.1732 70.2266 83.1985 68.6305C83.209 67.9212 83.1848 67.3209 82.3443 67.136C82.3205 67.1302 82.3016 67.108 82.2821 67.0849C82.2673 67.0669 82.2515 67.0485 82.2331 67.0374C81.9396 66.8641 81.6476 66.6886 81.3557 66.5131C80.3581 65.9139 79.3606 65.3148 78.3103 64.8094L78.3082 64.8063L78.3088 64.8084H78.3077H78.3082C77.932 64.4964 77.5067 64.2656 77.0815 64.0348C76.9302 63.9526 76.7795 63.8704 76.6304 63.785C75.4494 63.1052 74.2643 62.4323 73.0792 61.7593C72.6123 61.4948 72.1459 61.2297 71.6795 60.9647C71.7106 61.1107 71.7512 61.2387 71.8835 61.3262C71.7507 61.2387 71.708 61.1117 71.679 60.9642L71.6732 60.9615L71.6737 60.962C71.3844 61.0089 71.1473 60.931 70.9281 60.8098C70.8095 60.7444 70.6967 60.6664 70.5834 60.5879C70.4638 60.5052 70.3437 60.4219 70.2172 60.3545C70.1382 60.3118 70.0565 60.2749 69.9706 60.248C69.9126 60.2301 69.8573 60.2074 69.8035 60.1816C69.6491 60.1073 69.5079 60.0061 69.3651 59.9039C69.2739 59.838 69.1817 59.7722 69.0858 59.7131C69.0537 59.6936 69.0215 59.6747 68.9883 59.6567C68.7791 59.545 68.6358 59.3738 68.5657 59.144C68.533 59.036 68.5161 58.9143 68.5167 58.7794C68.5241 56.7922 68.5241 54.805 68.5235 52.8178C68.5235 49.7948 68.5235 46.772 68.5493 43.7493C68.553 43.2844 68.454 42.9279 68.2542 42.6393C68.0819 42.3898 67.8343 42.1912 67.5144 42.0172C67.4886 42.0029 67.4612 41.9893 67.4343 41.9756C67.361 41.939 67.2862 41.9015 67.2256 41.8489C67.1618 41.7932 67.1144 41.7205 67.1023 41.6136L67.0649 41.6034C66.4842 41.5864 65.9946 41.2584 65.5778 40.9534C65.2084 40.685 64.8063 40.4892 64.4053 40.294C64.0923 40.1415 63.7798 39.9893 63.4842 39.8033C63.3208 39.7003 63.1522 39.6046 62.9841 39.5091C62.6905 39.3426 62.3981 39.1765 62.1335 38.9728C61.7921 38.7096 61.6919 38.863 61.6203 39.1588C61.6166 39.1731 61.614 39.1876 61.6113 39.2022C61.596 39.2926 61.6003 39.3879 61.605 39.4831C61.6071 39.5279 61.6087 39.5727 61.6087 39.6169C61.6087 47.0264 61.6039 54.4361 61.5939 61.8458C61.5939 61.9496 61.6045 62.0502 61.6219 62.1488C61.6045 62.0497 61.5939 61.9485 61.5939 61.8437C61.6161 54.434 61.6213 47.0245 61.6092 39.6149C61.6092 39.5707 61.6071 39.526 61.605 39.4811C61.6008 39.3866 61.5966 39.292 61.6113 39.2022L65.5778 40.9554ZM73.0665 61.9691C73.2641 62.0861 73.4601 62.2052 73.6567 62.3248C73.9734 62.5176 74.2906 62.711 74.6142 62.8939C74.7375 62.9635 74.8613 63.0314 74.9862 63.0973L75.0484 63.13C75.8331 63.5447 76.6298 63.9652 77.375 64.4569C77.3908 64.4674 77.4066 64.478 77.4219 64.4885C77.4598 64.5149 77.4967 64.5412 77.5331 64.5681C77.7338 64.714 77.9257 64.8537 78.1844 64.8337M61.6614 62.3343C61.6804 62.4133 61.702 62.4918 61.7241 62.5698C61.7868 62.7959 61.8495 63.022 61.8527 63.2649C61.8553 63.4799 62.1283 63.7439 62.3649 63.7729C62.8191 63.8287 63.1696 64.0775 63.5116 64.3204C63.6127 64.3921 63.7134 64.4632 63.8151 64.5286C64.184 64.7646 64.5723 64.9659 64.9597 65.1672H64.9602C65.4745 65.4339 65.9883 65.7005 66.4547 66.0473C66.696 66.227 66.9611 66.3598 67.2272 66.4931C67.4575 66.6085 67.6878 66.7239 67.9049 66.8704C68.3038 67.1391 68.7396 67.3721 69.1738 67.6039H69.1743C69.324 67.684 69.4737 67.7636 69.6212 67.8447C69.9121 68.0044 70.1951 68.1788 70.4775 68.3533C70.8427 68.5793 71.2084 68.8049 71.5905 68.9977C72.2787 69.3455 72.9332 69.7487 73.5877 70.1523H73.5882C74.0662 70.4469 74.5441 70.7415 75.0352 71.0144C75.3757 71.2036 75.7187 71.3881 76.0623 71.573C77.0209 72.0884 77.9805 72.6043 78.8832 73.2224C79.467 73.6245 80.0946 73.9591 80.7539 74.22C80.9599 74.3011 81.1391 74.4687 81.3067 74.6263L81.3198 74.6384C81.5064 74.8149 81.7398 74.8966 81.9754 74.9783C82.2241 75.0652 82.475 75.1527 82.6741 75.3535C82.8333 75.5142 82.9519 75.3429 82.975 75.148C82.9508 75.3419 82.8333 75.5116 82.6747 75.3514C82.475 75.1506 82.2246 75.0631 81.9759 74.9767C81.7404 74.8945 81.5069 74.8128 81.3198 74.6363C81.1502 74.4756 80.9652 74.3011 80.7539 74.2179C80.0946 73.957 79.467 73.6224 78.8832 73.2203C77.981 72.6022 77.0214 72.0863 76.0628 71.5709C75.7193 71.3865 75.3762 71.2015 75.0352 71.0123C74.5441 70.7394 74.0662 70.4448 73.5882 70.1502C72.9337 69.7466 72.2792 69.3434 71.591 68.9956C71.2084 68.8028 70.8432 68.5772 70.4775 68.3517C70.1951 68.1773 69.9126 68.0023 69.6217 67.8432C69.471 67.7599 69.3187 67.6788 69.1664 67.5976C68.7343 67.3673 68.3017 67.1365 67.9049 66.8688C67.6883 66.7218 67.4575 66.6064 67.2277 66.491C66.9616 66.3577 66.6965 66.2249 66.4547 66.0452C65.9888 65.6984 65.475 65.4323 64.9602 65.1651C64.5723 64.9643 64.1845 64.7631 63.8156 64.527C63.7129 64.4611 63.6117 64.3894 63.51 64.3172C63.1685 64.0754 62.8186 63.8272 62.3654 63.7708C62.1283 63.7423 61.8558 63.4783 61.8527 63.2628C61.8495 63.0214 61.7873 62.7964 61.7241 62.5709C61.7025 62.4924 61.6804 62.4138 61.6614 62.3343ZM82.9798 72.6702V68.5256C82.9772 69.9073 82.9772 71.2885 82.9798 72.6702Z" fill="white"/>
<path d="M111.882 48.8429C111.882 53.438 111.86 58.0331 111.905 62.6272C111.912 63.2975 111.547 63.5789 111.117 63.7723C110.399 64.0948 109.76 64.5475 109.079 64.9253C108.198 65.4149 107.335 65.9439 106.446 66.4245C106.151 66.5826 105.911 66.8092 105.604 66.9562C105.21 67.1438 105.158 67.0068 105.16 66.6743C105.16 66.5046 105.16 66.3355 105.16 66.1658C105.16 57.1283 105.166 48.0914 105.178 39.0543C105.179 38.4391 104.893 38.0497 104.465 37.8249C103.656 37.3997 102.844 36.9623 102.07 36.4936C100.991 35.84 99.8485 35.2984 98.795 34.5929C98.1975 34.193 97.543 33.8469 96.9022 33.4973C95.8999 32.9501 94.954 32.3001 93.9496 31.7589C93.0253 31.2607 92.1442 30.6888 91.1936 30.2311C90.4674 29.8814 89.8282 29.3547 89.1184 28.9646C88.5002 28.6248 87.8837 28.2784 87.2513 27.9606C86.7254 27.6977 86.1837 27.421 85.7015 27.0733C84.8768 26.4818 83.9599 26.0592 83.0799 25.5676C82.2863 25.1236 81.5274 24.6225 80.7307 24.1818C80.1779 23.8762 80.2353 23.403 80.8508 23.146C81.8225 22.7395 82.7152 22.1845 83.601 21.6452C84.5417 21.0724 85.5693 20.6426 86.4382 19.9544C86.8039 19.6646 87.137 19.9307 87.3504 20.1036C87.9464 20.5863 88.6757 20.7976 89.3097 21.1923C90.195 21.7438 91.1066 22.2502 91.983 22.8197C92.7313 23.3064 93.5686 23.655 94.3301 24.1243C94.8507 24.4454 95.3682 24.8193 95.9036 25.0645C96.7963 25.4733 97.6057 26.007 98.4504 26.4831C99.8258 27.2577 101.134 28.1561 102.53 28.887C103.868 29.587 105.162 30.3658 106.471 31.1092C108.156 32.0651 109.821 33.0655 111.492 34.0513C111.81 34.2386 111.89 34.4989 111.889 34.8541C111.879 39.5164 111.877 44.1794 111.882 48.8429Z" fill="white"/>
<path d="M42.4838 96.2478V87.5191H46.7981C47.3634 87.5191 47.8622 87.6234 48.2945 87.8311C48.7351 88.0308 49.08 88.309 49.3294 88.6663C49.5788 89.0241 49.7035 89.4357 49.7035 89.901C49.7035 90.3083 49.5871 90.6783 49.3543 91.0108C49.1216 91.3348 48.814 91.5968 48.4316 91.7965C48.8888 91.9793 49.2546 92.2491 49.5289 92.6069C49.8115 92.9558 49.9529 93.3547 49.9529 93.8037C49.9529 94.2774 49.824 94.7016 49.5663 95.0758C49.3169 95.4415 48.9719 95.7282 48.5314 95.9363C48.0908 96.1439 47.5795 96.2478 46.9976 96.2478H42.4838ZM44.6285 91.0234H46.5488C46.848 91.0234 47.0891 90.9402 47.272 90.7736C47.4548 90.6076 47.5463 90.3916 47.5463 90.1255C47.5463 89.8509 47.4548 89.6349 47.272 89.4768C47.0974 89.3108 46.8563 89.2275 46.5488 89.2275H44.6285V91.0234ZM44.6285 94.5393H46.7233C47.0475 94.5393 47.3052 94.4524 47.4964 94.2774C47.6876 94.103 47.7832 93.8701 47.7832 93.5792C47.7832 93.2883 47.6876 93.0559 47.4964 92.881C47.3052 92.7065 47.0475 92.6191 46.7233 92.6191H44.6285V94.5393ZM50.8237 96.2478L54.228 87.5191H56.6721L60.0262 96.2478H57.707L56.9835 94.1657H53.7917L53.056 96.2478H50.8237ZM54.3776 92.5068H56.4102L55.4 89.6143L54.3776 92.5068ZM61.4 96.2478V87.5191H63.5447V91.3101L66.7993 87.5191H69.3556L65.5398 91.6215L69.5801 96.2478H66.7745L63.5447 92.2823V96.2478H61.4ZM70.6635 96.2478V87.5191H77.2596V89.315H72.8083V90.9734H75.95V92.7192H72.8083V94.4524H77.3096V96.2478H70.6635ZM79.3664 96.2478V87.5191H83.6058C84.2044 87.5191 84.7367 87.6398 85.202 87.8811C85.6678 88.1135 86.0293 88.4418 86.287 88.866C86.5531 89.2818 86.6859 89.7597 86.6859 90.2999C86.6859 90.8569 86.5363 91.3517 86.2369 91.7838C85.9461 92.208 85.5556 92.5279 85.065 92.744L86.8978 96.2478H84.5038L82.9202 93.0433H81.5111V96.2478H79.3664ZM81.5111 91.3596H83.4066C83.7391 91.3596 84.0052 91.2642 84.2044 91.073C84.4126 90.8817 84.5164 90.6324 84.5164 90.3252C84.5164 90.009 84.4126 89.7598 84.2044 89.5769C84.0052 89.3856 83.7391 89.2902 83.4066 89.2902H81.5111V91.3596ZM91.6721 96.3848C90.9823 96.3848 90.3257 96.2725 89.7023 96.0486C89.0789 95.8241 88.476 95.4952 87.8943 95.0631L88.9914 93.4796C89.5979 93.9038 90.1138 94.2026 90.5375 94.3776C90.9617 94.552 91.3896 94.6395 91.8217 94.6395C92.1295 94.6395 92.3914 94.602 92.6074 94.5272C92.8319 94.444 93.0021 94.3359 93.1186 94.2026C93.2435 94.0614 93.3057 93.8996 93.3057 93.7167C93.3057 93.4591 93.2182 93.2636 93.0438 93.1308C92.8778 92.989 92.5827 92.881 92.1585 92.8061L90.3004 92.4821C89.6106 92.3656 89.0789 92.0995 88.7047 91.6842C88.339 91.2685 88.1562 90.7531 88.1562 90.1381C88.1562 89.5727 88.2932 89.0863 88.5672 88.6789C88.8417 88.2632 89.2364 87.9433 89.7518 87.7188C90.2756 87.4943 90.899 87.3821 91.6225 87.3821C92.2955 87.3821 92.9484 87.4859 93.5802 87.694C94.212 87.8932 94.7522 88.172 95.2012 88.5293L94.1161 90.0881C93.6925 89.764 93.2682 89.5226 92.8446 89.3651C92.4204 89.207 91.9756 89.1279 91.5103 89.1279C91.2273 89.1279 90.9865 89.1653 90.7868 89.2402C90.5876 89.3066 90.4337 89.4019 90.3257 89.5268C90.2255 89.6517 90.176 89.7929 90.176 89.951C90.176 90.1755 90.2508 90.35 90.4005 90.4743C90.5581 90.5908 90.8121 90.6825 91.1609 90.7489L92.9068 91.0482C93.7214 91.181 94.3406 91.4597 94.7648 91.8834C95.1885 92.3076 95.4004 92.852 95.4004 93.517C95.4004 94.0825 95.247 94.581 94.9393 95.0136C94.6399 95.4457 94.212 95.7824 93.655 96.0233C93.098 96.2646 92.4372 96.3848 91.6721 96.3848ZM97.1746 96.2478V87.5191H103.771V89.315H99.3194V90.9734H102.462V92.7192H99.3194V94.4524H103.821V96.2478H97.1746ZM105.877 96.2478V87.5191H110.117C110.716 87.5191 111.248 87.6398 111.713 87.8811C112.179 88.1135 112.54 88.4418 112.798 88.866C113.064 89.2818 113.197 89.7597 113.197 90.2999C113.197 90.8569 113.047 91.3517 112.748 91.7838C112.457 92.208 112.067 92.5279 111.576 92.744L113.409 96.2478H111.015L109.431 93.0433H108.022V96.2478H105.877ZM108.022 91.3596H109.918C110.25 91.3596 110.516 91.2642 110.716 91.073C110.924 90.8817 111.028 90.6324 111.028 90.3252C111.028 90.009 110.924 89.7598 110.716 89.5769C110.516 89.3856 110.25 89.2902 109.918 89.2902H108.022V91.3596ZM117.243 96.2478L113.889 87.5191H116.208L118.515 94.0161L120.859 87.5191H123.091L119.687 96.2478H117.243ZM124.465 96.2478V87.5191H131.061V89.315H126.61V90.9734H129.752V92.7192H126.61V94.4524H131.111V96.2478H124.465Z" fill="white"/>
<path d="M68.5103 105.921V100.913H69.3471L71.9582 104.554L71.944 100.913H72.7523V105.921H71.9872L69.3044 102.179L69.3186 105.921H68.5103ZM74.1672 105.921V100.913H77.7654V101.642H75.0257V103.073H76.9143V103.788H75.0257V105.921H74.1672ZM80.1678 105.921V101.656H78.4936V100.913H82.7004V101.656H81.0262V105.921H80.1678ZM85.5139 105.921V100.913H89.1125V101.642H86.3723V103.073H88.2609V103.788H86.3723V105.921H85.5139ZM88.8801 105.921L90.8478 100.913H91.8422L93.7809 105.921H92.8577L92.3428 104.518H90.2898L89.7744 105.921H88.8801ZM90.5401 103.846H92.1067L91.32 101.728L90.5401 103.846ZM94.6409 105.921V100.913H96.8658C97.1951 100.913 97.486 100.977 97.7389 101.106C97.9914 101.235 98.1869 101.413 98.3255 101.642C98.4683 101.867 98.5399 102.129 98.5399 102.429C98.5399 102.754 98.4493 103.038 98.268 103.281C98.0915 103.519 97.8507 103.693 97.5455 103.803L98.6042 105.921H97.653L96.6871 103.917H95.4993V105.921H94.6409ZM95.4993 103.23H96.7872C97.0544 103.23 97.2689 103.159 97.4312 103.016C97.5935 102.868 97.6741 102.675 97.6741 102.436C97.6741 102.193 97.5935 102 97.4312 101.857C97.2689 101.709 97.0544 101.635 96.7872 101.635H95.4993V103.23ZM99.6624 105.921V100.913H100.778L102.245 103.953L103.704 100.913H104.82V105.921H104.012V102L102.238 105.563L100.457 101.978V105.921H99.6624Z" fill="white"/>
</svg>
