<svg width="205" height="64" viewBox="0 0 205 64" fill="none" xmlns="http://www.w3.org/2000/svg">
<path fill-rule="evenodd" clip-rule="evenodd" d="M45.8443 19.7109C43.6992 17.7731 41.1097 16.4032 38.3141 15.7172V31.8716H42.6026C42.8826 31.0731 43.5692 30.4417 44.4603 30.2732C45.7895 30.0219 47.0708 30.8958 47.3223 32.2251C47.5735 33.5544 46.6995 34.8357 45.3703 35.087C44.1968 35.3088 43.061 34.6538 42.6378 33.5829H38.3141V49.5743C40.929 48.9416 43.351 47.7091 45.4109 45.9641C45.9469 45.5101 46.4586 45.0212 46.9429 44.4992C49.9251 41.2822 51.5854 37.0591 51.5919 32.6723C51.5979 28.2855 49.9504 24.0576 46.9771 20.832C46.6152 20.4397 46.2374 20.0658 45.8443 19.7109ZM35.5501 33.5829V52.7713L35.7156 52.693C36.4661 52.6293 37.2122 52.5232 37.9499 52.3769C38.0406 52.3589 38.1313 52.3405 38.2218 52.3213C41.4811 51.6286 44.5647 50.145 47.1174 48.0098C47.7463 47.484 48.3427 46.9185 48.9018 46.3157C52.3414 42.6056 54.2558 37.7353 54.2635 32.6761C54.2708 27.617 52.3705 22.7411 48.9412 19.0213C48.5198 18.5637 48.0753 18.1287 47.6111 17.7168C44.9703 15.3735 41.6821 13.778 38.2148 13.0488C37.4038 12.8782 36.5829 12.755 35.7582 12.6807C35.6891 12.6745 35.62 12.6686 35.5508 12.6631V12.7073L35.5501 12.707V31.8716H32.4706V33.5829H35.5501Z" fill="white"/>
<path fill-rule="evenodd" clip-rule="evenodd" d="M22.4834 45.6797C24.6333 47.6215 27.2295 48.993 30.0321 49.6779V41.6685H30.0292V40.4062C30.0292 39.61 29.8408 38.825 29.4795 38.1155L29.4502 38.0579C29.0965 37.3634 28.5868 36.7601 27.961 36.2955L24.6804 33.8598C24.4144 33.888 24.1465 33.9015 23.8777 33.9001L22.5391 33.8929L22.5392 33.8824H16.7734C17.0329 37.8479 18.6417 41.6193 21.3509 44.5584C21.7125 44.9507 22.0905 45.3246 22.4834 45.6797ZM23.0161 31.5723V31.5852L23.8901 31.5899C24.6699 31.5941 25.4397 31.4138 26.1365 31.0636C26.918 30.671 27.5813 30.0781 28.0588 29.3454L30.0548 26.2828C30.04 26.2231 30.0321 26.1606 30.0321 26.0963V15.8116C27.4102 16.4431 24.9815 17.6773 22.9168 19.4263C22.3807 19.8805 21.8692 20.3693 21.3852 20.8913C18.6633 23.8271 17.0428 27.6008 16.7755 31.5723H23.0161ZM32.7405 26.3085C32.7598 26.2411 32.7701 26.1699 32.7701 26.0963V15.3798V15.3576V14.7594V14.0108V12.6846C31.9664 12.7466 31.1673 12.8568 30.378 13.0135C30.2873 13.0315 30.1966 13.0501 30.1061 13.0693C26.8468 13.762 23.7631 15.2453 21.2105 17.3806C20.5817 17.9065 19.9851 18.4719 19.4261 19.0749C15.9864 22.7848 14.0719 27.6552 14.0645 32.7143C14.0572 37.7734 15.9576 42.6493 19.3865 46.3693C19.8083 46.8266 20.2526 47.2617 20.7169 47.6737C23.3578 50.0168 26.6457 51.6125 30.1131 52.3415C30.9241 52.5122 31.745 52.6354 32.5697 52.7098C32.6388 52.7158 32.7079 52.7218 32.7771 52.7274V50.1199L32.7701 50.1194V40.4707C32.7701 40.4405 32.7691 40.4107 32.7671 40.3811C32.7631 39.1616 32.4728 37.96 31.9193 36.873L31.89 36.8155C31.3445 35.7442 30.5583 34.8138 29.5931 34.0972L27.8053 32.7698C28.6789 32.2152 29.4261 31.4784 29.9942 30.6068L31.8919 27.6951L31.9062 27.704L32.614 26.5611C32.6432 26.5227 32.6688 26.4814 32.6904 26.4378L32.7622 26.322L32.7405 26.3085Z" fill="white"/>
<path d="M62.3338 17.5015H60.735V46.4154H62.3338V17.5015Z" fill="white"/>
<path d="M69.864 18.3472V29.0158H75.0918C77.6064 29.0158 79.1914 27.8727 79.1914 26.059C79.1914 24.6721 78.338 23.6205 76.9968 23.3614C78.1245 23.0414 78.8257 22.1422 78.8257 21.0143C78.8257 19.3835 77.3014 18.3472 74.9087 18.3472H69.864ZM72.5617 20.4199H74.7564C75.5487 20.4199 76.0518 20.8162 76.0518 21.502C76.0518 22.1879 75.5487 22.6146 74.7564 22.6146H72.5617V20.4199ZM72.5617 24.5654H74.7564C75.7621 24.5654 76.3872 25.0074 76.3872 25.7238C76.3872 26.4858 75.7621 26.9278 74.7564 26.9278H72.5617V24.5654ZM87.846 27.0497L88.6079 29.0158H91.5037L87.0075 18.3472H84.2186L79.6158 29.0158H82.4047L83.182 27.0497H87.846ZM87.0533 24.9922H83.9748L85.5294 21.0448L87.0533 24.9922ZM99.437 29.0158H102.683L98.4616 22.767L102.424 18.3472H99.2847L95.2 22.9652V18.3472H92.4873V29.0158H95.2V26.3944L96.6173 24.8246L99.437 29.0158ZM112.225 20.4809V18.3472H103.873V29.0158H112.393V26.8821H106.586V24.7331H111.677V22.5994H106.586V20.4809H112.225ZM120.575 29.0158H123.653L121.413 25.4951C122.663 24.8703 123.348 23.6967 123.348 22.0659C123.348 19.6884 121.733 18.3472 118.913 18.3472H114.143V29.0158H116.856V26.0134H118.913H118.99L120.575 29.0158ZM116.856 23.8796V20.4809H118.913C120.087 20.4809 120.773 21.0448 120.773 22.1574C120.773 23.2852 120.087 23.8796 118.913 23.8796H116.856ZM69.864 36.6573V47.3261H74.3448C77.7741 47.3261 80.1211 45.1464 80.1211 41.9917C80.1211 38.8215 77.8045 36.6573 74.4513 36.6573H69.864ZM72.5767 38.8215H74.3906C76.1129 38.8215 77.3626 40.117 77.3626 42.0069C77.3626 43.8814 76.1737 45.1618 74.5125 45.1618H72.5767V38.8215ZM89.8999 38.7911V36.6573H81.5478V47.3261H90.0672V45.1922H84.2605V43.0433H89.351V40.9095H84.2605V38.7911H89.8999ZM96.8163 36.5659C93.5701 36.5659 91.1162 38.8825 91.1162 41.9612C91.1162 45.0857 93.5093 47.448 96.7251 47.448C98.2948 47.448 99.9867 46.6707 101.129 45.4972L99.5444 43.8207C98.7979 44.5826 97.7613 45.0703 96.862 45.0703C95.1705 45.0703 93.89 43.7137 93.89 41.9307C93.89 40.178 95.1705 38.8368 96.862 38.8368C97.8071 38.8368 98.8436 39.3702 99.5444 40.2237L101.114 38.3643C100.047 37.267 98.4013 36.5659 96.8163 36.5659ZM110.722 38.7911V36.6573H102.37V47.3261H110.889V45.1922H105.083V43.0433H110.173V40.9095H105.083V38.7911H110.722ZM122.485 47.3261V36.6573H119.956V43.2414L115.032 36.6573H112.64V47.3261H115.185V40.7571L120.092 47.3261H122.485ZM132.775 38.8368V36.6421H123.661V38.8368H126.846V47.3261H129.559V38.8368H132.775ZM140.37 47.3261H143.449L141.208 43.8053C142.458 43.1802 143.144 42.0069 143.144 40.3761C143.144 37.9986 141.528 36.6573 138.708 36.6573H133.938V47.3261H136.651V44.3233H138.708H138.785L140.37 47.3261ZM136.651 42.1898V38.7911H138.708C139.882 38.7911 140.568 39.355 140.568 40.4676C140.568 41.5954 139.882 42.1898 138.708 42.1898H136.651ZM152.054 45.3599L152.816 47.3261H155.712L151.216 36.6573H148.427L143.824 47.3261H146.613L147.39 45.3599H152.054ZM151.262 43.3022H148.183L149.737 39.355L151.262 43.3022ZM161.412 36.5659C158.165 36.5659 155.712 38.8825 155.712 41.9612C155.712 45.0857 158.104 47.448 161.32 47.448C162.89 47.448 164.582 46.6707 165.725 45.4972L164.14 43.8207C163.393 44.5826 162.356 45.0703 161.457 45.0703C159.766 45.0703 158.485 43.7137 158.485 41.9307C158.485 40.178 159.766 38.8368 161.457 38.8368C162.402 38.8368 163.439 39.3702 164.14 40.2237L165.71 38.3643C164.643 37.267 162.997 36.5659 161.412 36.5659ZM169.678 47.3261V36.6573H166.965V47.3261H169.678ZM179.971 38.8368V36.6421H170.857V38.8368H174.042V47.3261H176.755V38.8368H179.971ZM183.847 47.3261V36.6573H181.135V47.3261H183.847Z" fill="white"/>
<path d="M31.9572 34.9092C33.1858 34.9092 34.1818 33.9132 34.1818 32.6846C34.1818 31.4559 33.1858 30.46 31.9572 30.46C30.7286 30.46 29.7326 31.4559 29.7326 32.6846C29.7326 33.9132 30.7286 34.9092 31.9572 34.9092Z" fill="white"/>
<path d="M31.9572 33.8824C32.6424 33.8824 33.1978 33.327 33.1978 32.6418C33.1978 31.9566 32.6424 31.4011 31.9572 31.4011C31.272 31.4011 30.7166 31.9566 30.7166 32.6418C30.7166 33.327 31.272 33.8824 31.9572 33.8824Z" fill="white"/>
</svg>
