<svg width="32" height="33" viewBox="0 0 32 33" fill="none" xmlns="http://www.w3.org/2000/svg">
<path fill-rule="evenodd" clip-rule="evenodd" d="M16 32.5742C7.16344 32.5742 0 25.4108 0 16.5742C0 7.73766 7.16344 0.574219 16 0.574219C24.8366 0.574219 32 7.73766 32 16.5742C32 25.4108 24.8366 32.5742 16 32.5742ZM16.6919 12.5816C15.2589 13.1776 12.3949 14.4113 8.09992 16.2825C7.40248 16.5599 7.03714 16.8312 7.00388 17.0965C6.94767 17.5449 7.50915 17.7214 8.27374 17.9618C8.37774 17.9945 8.4855 18.0284 8.59598 18.0643C9.34822 18.3089 10.3601 18.5949 10.8862 18.6063C11.3633 18.6166 11.8959 18.4199 12.4839 18.0161C16.4968 15.3073 18.5683 13.9381 18.6983 13.9086C18.7901 13.8878 18.9172 13.8616 19.0034 13.9382C19.0895 14.0147 19.0811 14.1597 19.0719 14.1986C19.0163 14.4358 16.8123 16.4848 15.6717 17.5452C15.3161 17.8758 15.0639 18.1103 15.0124 18.1638C14.8969 18.2838 14.7791 18.3973 14.666 18.5063C13.9672 19.18 13.4431 19.6852 14.695 20.5102C15.2967 20.9067 15.7781 21.2345 16.2584 21.5616C16.7829 21.9188 17.306 22.2751 17.9829 22.7188C18.1554 22.8318 18.3201 22.9493 18.4805 23.0636C19.0909 23.4988 19.6393 23.8898 20.3168 23.8274C20.7105 23.7912 21.1172 23.421 21.3237 22.3169C21.8118 19.7077 22.7712 14.0543 22.9929 11.7247C23.0123 11.5206 22.9879 11.2594 22.9683 11.1447C22.9486 11.03 22.9076 10.8667 22.7586 10.7457C22.582 10.6025 22.3095 10.5723 22.1877 10.5743C21.6335 10.5842 20.7834 10.8798 16.6919 12.5816Z" fill="white"/>
</svg>
