<svg width="32" height="33" viewBox="0 0 32 33" fill="none" xmlns="http://www.w3.org/2000/svg">
<path fill-rule="evenodd" clip-rule="evenodd" d="M0 16.5742C0 7.73766 7.16344 0.574219 16 0.574219C24.8366 0.574219 32 7.73766 32 16.5742C32 25.4108 24.8366 32.5742 16 32.5742C7.16344 32.5742 0 25.4108 0 16.5742ZM22.1 12.0742C22.8 11.9742 23.4 11.8742 24 11.5742C23.6 12.2742 23 12.8742 22.3 13.2742C22.5 17.9742 19.1 23.0742 13 23.0742C11.2 23.0742 9.5 22.4742 8 21.5742C9.7 21.7742 11.5 21.2742 12.7 20.3742C11.2 20.3742 10 19.3742 9.6 18.0742C10.1 18.1742 10.6 18.0742 11.1 17.9742C9.6 17.5742 8.5 16.1742 8.5 14.6742C9 14.8742 9.5 15.0742 10 15.0742C8.6 14.0742 8.1 12.1742 9 10.6742C10.7 12.6742 13.1 13.9742 15.8 14.0742C15.3 12.0742 16.9 10.0742 19 10.0742C19.9 10.0742 20.8 10.4742 21.4 11.0742C22.2 10.8742 22.9 10.6742 23.5 10.2742C23.3 11.0742 22.8 11.6742 22.1 12.0742Z" fill="white"/>
</svg>
