<svg width="56" height="56" viewBox="0 0 56 56" fill="none" xmlns="http://www.w3.org/2000/svg">
<path fill-rule="evenodd" clip-rule="evenodd" d="M6.10352e-05 28C6.10352e-05 12.536 12.5361 0 28.0001 0C43.464 0 56.0001 12.536 56.0001 28C56.0001 43.464 43.464 56 28.0001 56C12.5361 56 6.10352e-05 43.464 6.10352e-05 28ZM38.6751 20.125C39.9001 19.95 40.9501 19.775 42.0001 19.25C41.3001 20.475 40.2501 21.525 39.0251 22.225C39.3751 30.45 33.4251 39.375 22.7501 39.375C19.6001 39.375 16.6251 38.325 14.0001 36.75C16.9751 37.1 20.1251 36.225 22.2251 34.65C19.6001 34.65 17.5001 32.9 16.8001 30.625C17.6751 30.8 18.5501 30.625 19.4251 30.45C16.8001 29.75 14.8751 27.3 14.8751 24.675C15.7501 25.025 16.6251 25.375 17.5001 25.375C15.0501 23.625 14.1751 20.3 15.7501 17.675C18.7251 21.175 22.9251 23.45 27.6501 23.625C26.7751 20.125 29.5751 16.625 33.2501 16.625C34.8251 16.625 36.4001 17.325 37.4501 18.375C38.8501 18.025 40.0751 17.675 41.1251 16.975C40.7751 18.375 39.9001 19.425 38.6751 20.125Z" fill="white"/>
</svg>
